<svg width="48" height="484" viewBox="0 0 48 484" fill="none" xmlns="http://www.w3.org/2000/svg">
<circle cx="24" cy="18" r="18" fill="#2196F3"/>
<circle cx="24" cy="130" r="18" fill="#2196F3"/>
<circle cx="24" cy="242" r="18" fill="#2196F3"/>
<circle cx="24" cy="466" r="18" fill="#DDDDDD"/>
<rect x="23" y="24" width="2" height="445" fill="#DDDDDD"/>
<circle cx="24" cy="354" r="18" fill="#2196F3"/>
<rect x="23" y="24" width="2" height="330" fill="#2196F3"/>
<circle cx="24" cy="354" r="23.5" stroke="#2196F3"/>
<path d="M24.698 24H23.204V13.974L21.278 16.008L20.378 15.09L23.384 11.994H24.698V24Z" fill="white"/>
<path d="M28.216 136H19.972V134.812C21.22 133.828 22.186 133.048 22.87 132.472C23.566 131.884 24.232 131.266 24.868 130.618C25.516 129.958 25.972 129.376 26.236 128.872C26.5 128.356 26.632 127.846 26.632 127.342C26.632 126.622 26.386 126.076 25.894 125.704C25.402 125.332 24.814 125.146 24.13 125.146C22.75 125.146 21.664 125.65 20.872 126.658L19.954 125.704C20.41 125.104 21.004 124.642 21.736 124.318C22.48 123.982 23.278 123.814 24.13 123.814C25.222 123.814 26.164 124.12 26.956 124.732C27.76 125.344 28.162 126.214 28.162 127.342C28.162 128.458 27.682 129.574 26.722 130.69C25.762 131.794 24.298 133.12 22.33 134.668H28.216V136Z" fill="white"/>
<path d="M23.788 248.216C22.828 248.216 21.976 248.03 21.232 247.658C20.488 247.286 19.918 246.812 19.522 246.236L20.404 245.3C20.764 245.78 21.238 246.164 21.826 246.452C22.414 246.74 23.056 246.884 23.752 246.884C24.628 246.884 25.312 246.686 25.804 246.29C26.308 245.882 26.56 245.33 26.56 244.634C26.56 243.914 26.29 243.38 25.75 243.032C25.222 242.684 24.496 242.51 23.572 242.51C22.864 242.51 22.45 242.516 22.33 242.528V241.16C22.462 241.172 22.876 241.178 23.572 241.178C24.388 241.178 25.054 241.016 25.57 240.692C26.098 240.356 26.362 239.858 26.362 239.198C26.362 238.562 26.104 238.064 25.588 237.704C25.084 237.332 24.448 237.146 23.68 237.146C22.468 237.146 21.412 237.632 20.512 238.604L19.684 237.668C20.704 236.432 22.072 235.814 23.788 235.814C24.976 235.814 25.948 236.102 26.704 236.678C27.472 237.242 27.856 238.022 27.856 239.018C27.856 239.81 27.592 240.446 27.064 240.926C26.536 241.394 25.936 241.688 25.264 241.808C25.924 241.868 26.548 242.156 27.136 242.672C27.736 243.188 28.036 243.884 28.036 244.76C28.036 245.78 27.652 246.614 26.884 247.262C26.116 247.898 25.084 248.216 23.788 248.216Z" fill="white"/>
<path d="M26.776 360H25.282V356.958H19.576V355.716L24.724 347.994H26.776V355.644H28.468V356.958H26.776V360ZM25.282 355.644V349.38L21.07 355.644H25.282Z" fill="white"/>
<path d="M24.418 472.216C22.57 472.216 21.16 471.574 20.188 470.29L21.106 469.3C21.934 470.356 23.038 470.884 24.418 470.884C25.234 470.884 25.9 470.638 26.416 470.146C26.932 469.654 27.19 469.042 27.19 468.31C27.19 467.53 26.932 466.906 26.416 466.438C25.912 465.958 25.252 465.718 24.436 465.718C23.356 465.718 22.432 466.096 21.664 466.852L20.566 466.474V459.994H27.91V461.326H22.06V465.502C22.78 464.782 23.716 464.422 24.868 464.422C25.924 464.422 26.824 464.77 27.568 465.466C28.312 466.15 28.684 467.08 28.684 468.256C28.684 469.456 28.282 470.416 27.478 471.136C26.674 471.856 25.654 472.216 24.418 472.216Z" fill="white"/>
</svg>
