<svg width="48" height="490" viewBox="0 0 48 490" fill="none" xmlns="http://www.w3.org/2000/svg">
<circle cx="24" cy="136" r="18" fill="#DDDDDD"/>
<circle cx="24" cy="248" r="18" fill="#DDDDDD"/>
<circle cx="24" cy="360" r="18" fill="#DDDDDD"/>
<circle cx="24" cy="472" r="18" fill="#DDDDDD"/>
<rect x="23" y="30" width="2" height="445" fill="#DDDDDD"/>
<rect width="2" height="3" transform="matrix(1 0 0 -1 23 30)" fill="#2196F3"/>
<circle cx="24" cy="24" r="18" fill="#2196F3"/>
<circle cx="24" cy="24" r="23.5" stroke="#2196F3"/>
<path d="M24.698 30H23.204V19.974L21.278 22.008L20.378 21.09L23.384 17.994H24.698V30Z" fill="white"/>
<path d="M28.216 142H19.972V140.812C21.22 139.828 22.186 139.048 22.87 138.472C23.566 137.884 24.232 137.266 24.868 136.618C25.516 135.958 25.972 135.376 26.236 134.872C26.5 134.356 26.632 133.846 26.632 133.342C26.632 132.622 26.386 132.076 25.894 131.704C25.402 131.332 24.814 131.146 24.13 131.146C22.75 131.146 21.664 131.65 20.872 132.658L19.954 131.704C20.41 131.104 21.004 130.642 21.736 130.318C22.48 129.982 23.278 129.814 24.13 129.814C25.222 129.814 26.164 130.12 26.956 130.732C27.76 131.344 28.162 132.214 28.162 133.342C28.162 134.458 27.682 135.574 26.722 136.69C25.762 137.794 24.298 139.12 22.33 140.668H28.216V142Z" fill="white"/>
<path d="M23.788 254.216C22.828 254.216 21.976 254.03 21.232 253.658C20.488 253.286 19.918 252.812 19.522 252.236L20.404 251.3C20.764 251.78 21.238 252.164 21.826 252.452C22.414 252.74 23.056 252.884 23.752 252.884C24.628 252.884 25.312 252.686 25.804 252.29C26.308 251.882 26.56 251.33 26.56 250.634C26.56 249.914 26.29 249.38 25.75 249.032C25.222 248.684 24.496 248.51 23.572 248.51C22.864 248.51 22.45 248.516 22.33 248.528V247.16C22.462 247.172 22.876 247.178 23.572 247.178C24.388 247.178 25.054 247.016 25.57 246.692C26.098 246.356 26.362 245.858 26.362 245.198C26.362 244.562 26.104 244.064 25.588 243.704C25.084 243.332 24.448 243.146 23.68 243.146C22.468 243.146 21.412 243.632 20.512 244.604L19.684 243.668C20.704 242.432 22.072 241.814 23.788 241.814C24.976 241.814 25.948 242.102 26.704 242.678C27.472 243.242 27.856 244.022 27.856 245.018C27.856 245.81 27.592 246.446 27.064 246.926C26.536 247.394 25.936 247.688 25.264 247.808C25.924 247.868 26.548 248.156 27.136 248.672C27.736 249.188 28.036 249.884 28.036 250.76C28.036 251.78 27.652 252.614 26.884 253.262C26.116 253.898 25.084 254.216 23.788 254.216Z" fill="white"/>
<path d="M26.776 366H25.282V362.958H19.576V361.716L24.724 353.994H26.776V361.644H28.468V362.958H26.776V366ZM25.282 361.644V355.38L21.07 361.644H25.282Z" fill="white"/>
<path d="M24.418 478.216C22.57 478.216 21.16 477.574 20.188 476.29L21.106 475.3C21.934 476.356 23.038 476.884 24.418 476.884C25.234 476.884 25.9 476.638 26.416 476.146C26.932 475.654 27.19 475.042 27.19 474.31C27.19 473.53 26.932 472.906 26.416 472.438C25.912 471.958 25.252 471.718 24.436 471.718C23.356 471.718 22.432 472.096 21.664 472.852L20.566 472.474V465.994H27.91V467.326H22.06V471.502C22.78 470.782 23.716 470.422 24.868 470.422C25.924 470.422 26.824 470.77 27.568 471.466C28.312 472.15 28.684 473.08 28.684 474.256C28.684 475.456 28.282 476.416 27.478 477.136C26.674 477.856 25.654 478.216 24.418 478.216Z" fill="white"/>
</svg>
